<?xml version="1.0" standalone="no"?>
<!DOCTYPE svg PUBLIC "-//W3C//DTD SVG 20010904//EN"
 "http://www.w3.org/TR/2001/REC-SVG-20010904/DTD/svg10.dtd">
<svg version="1.0" xmlns="http://www.w3.org/2000/svg"
 width="5000.000000pt" height="5000.000000pt" viewBox="0 0 5000.000000 5000.000000"
 preserveAspectRatio="xMidYMid meet">
<metadata>
Created by potrace 1.14, written by Peter Selinger 2001-2017
</metadata>
<g transform="translate(0.000000,5000.000000) scale(0.100000,-0.100000)"
fill="#000000" stroke="none">
<path d="M24650 48504 c-3090 -47 -6086 -683 -8907 -1892 -797 -342 -1622
-752 -2373 -1179 -2129 -1212 -4055 -2755 -5740 -4595 l-162 -178 -1024 0
-1024 0 0 -1321 0 -1322 -159 -246 c-503 -779 -884 -1448 -1300 -2281 -1426
-2859 -2238 -5901 -2425 -9090 -53 -886 -53 -1914 0 -2800 160 -2730 779
-5353 1852 -7857 185 -430 348 -781 573 -1233 416 -833 797 -1502 1300 -2281
l159 -246 0 -5247 0 -5246 19580 0 19580 0 0 5246 0 5247 162 251 c510 791
881 1443 1297 2276 1425 2857 2238 5903 2425 9090 53 886 53 1914 0 2800 -187
3187 -1000 6233 -2425 9090 -416 833 -797 1502 -1300 2281 l-159 246 0 1322 0
1321 -1024 0 -1024 0 -162 178 c-1562 1706 -3329 3154 -5285 4329 -862 518
-1842 1020 -2794 1430 -2666 1150 -5528 1792 -8431 1892 -324 12 -935 19
-1210 15z m1385 -353 c508 -27 929 -58 1315 -97 5535 -558 10654 -3082 14502
-7149 l226 -240 -8539 -3 c-4696 -1 -12382 -1 -17078 0 l-8539 3 226 240
c2300 2430 5056 4318 8134 5571 2439 992 5080 1566 7713 1674 143 6 296 12
340 14 173 7 1511 -3 1700 -13z m-18917 -7893 c-323 -370 -867 -1063 -1232
-1570 -70 -98 -129 -178 -132 -178 -2 0 -4 407 -4 905 l0 905 711 0 711 0 -54
-62z m1258 46 c-48 -48 9 -126 226 -306 197 -165 397 -431 398 -530 0 -38 -31
-37 -104 2 -102 53 -203 139 -363 307 -236 248 -476 443 -638 519 l-50 24 273
0 c249 0 272 -1 258 -16z m16049 9 c-633 -81 -1039 -407 -1234 -990 -85 -254
-122 -520 -124 -886 -2 -243 -2 -248 -22 -242 -88 26 -142 17 -197 -33 -53
-48 -79 -91 -112 -181 -76 -212 -45 -486 76 -666 63 -96 122 -145 236 -201 87
-44 92 -48 92 -77 0 -52 48 -343 76 -461 64 -266 127 -383 314 -576 l82 -85
-5 -175 c-6 -174 -23 -320 -51 -428 -12 -47 -24 -65 -63 -99 -100 -89 -217
-134 -450 -173 l-123 -20 -112 30 c-418 111 -868 175 -1678 240 -773 62 -874
84 -1625 360 -1186 437 -1968 648 -3295 890 -547 100 -670 140 -1380 450 -661
289 -1006 426 -1515 604 -645 224 -1493 465 -2310 656 -121 28 -259 65 -307
80 -243 81 -473 242 -639 448 -76 94 -123 166 -224 342 -366 640 -788 1042
-1236 1174 l-84 25 7970 -1 c4384 -1 7957 -3 7940 -5z m16648 -18 c-170 -57
-229 -92 -512 -302 -306 -228 -404 -336 -585 -653 -154 -270 -310 -453 -491
-576 -175 -119 -318 -178 -580 -238 -2830 -652 -3566 -896 -4485 -1489 -224
-144 -240 -150 -511 -192 -486 -75 -1191 -220 -1751 -361 -564 -141 -1042
-291 -1753 -549 -788 -287 -900 -315 -1455 -370 -1181 -118 -1988 -268 -2534
-472 l-121 -45 -70 12 c-155 27 -281 87 -359 170 -36 39 -44 56 -59 125 -23
108 -36 215 -44 368 l-6 128 86 80 c126 116 242 259 287 354 65 133 120 354
160 639 11 83 22 150 23 151 1 1 18 8 37 15 202 76 340 251 386 488 45 233
-29 514 -158 599 -49 33 -123 41 -166 19 l-32 -17 0 203 c0 584 -100 1006
-315 1333 -214 325 -543 522 -985 589 -83 12 913 14 7985 14 l8080 1 -72 -24z
m876 21 c-4 -4 -257 -175 -548 -369 -255 -171 -314 -194 -361 -147 -29 29 -25
68 13 130 27 45 51 67 147 131 178 119 254 204 219 245 -10 12 28 14 261 14
151 0 271 -2 269 -4z m451 -11 c7 -8 8 -15 2 -15 -5 0 -15 7 -22 15 -7 8 -8
15 -2 15 5 0 15 -7 22 -15z m1850 -890 c0 -498 -2 -905 -4 -905 -3 0 -62 80
-132 178 -365 507 -909 1200 -1232 1570 l-54 62 711 0 711 0 0 -905z m-1603
603 c531 -625 990 -1223 1462 -1907 l141 -205 0 -2214 c0 -2105 -1 -2214 -17
-2207 -118 48 -312 45 -868 -11 -290 -29 -469 -35 -502 -16 -34 19 -17 50 53
97 101 69 393 157 679 204 72 12 167 28 212 36 162 27 218 73 210 172 -4 64
-23 87 -82 102 -62 16 -316 13 -473 -4 -389 -43 -944 -149 -1236 -235 -141
-42 -171 -47 -181 -30 -12 20 17 40 169 114 241 119 327 199 422 393 98 199
94 363 -10 363 -38 0 -63 -15 -207 -130 -207 -165 -345 -237 -635 -331 -104
-34 -222 -77 -262 -96 -105 -50 -229 -136 -382 -269 -158 -136 -289 -226 -420
-288 -281 -132 -485 -158 -905 -112 -966 105 -1845 147 -2624 126 -419 -11
-690 -27 -1211 -70 -532 -44 -707 -53 -900 -47 -290 9 -364 23 -875 167 -579
162 -1213 323 -1658 421 -81 18 -144 36 -140 40 5 4 76 37 158 74 457 205
1193 587 1760 912 172 99 231 118 845 268 168 41 386 99 486 129 668 202 1414
563 2274 1099 444 277 779 509 1315 912 537 403 664 480 867 520 729 145 1336
454 1768 901 168 174 269 315 347 482 232 504 285 701 227 840 -7 18 -10 30
-5 28 5 -3 94 -106 198 -228z m-35144 135 c-62 -126 -63 -218 -7 -498 55 -271
86 -355 191 -511 323 -480 773 -884 1259 -1131 254 -129 479 -210 744 -267
248 -54 337 -106 950 -566 377 -282 555 -410 836 -597 553 -369 1054 -663
1549 -908 606 -300 975 -433 1692 -610 595 -148 613 -154 828 -275 454 -257
1071 -577 1435 -745 80 -37 149 -70 153 -74 5 -5 -121 -41 -280 -80 -360 -90
-676 -174 -1093 -291 -356 -99 -476 -125 -650 -140 -224 -19 -430 -12 -990 35
-616 51 -805 62 -1281 75 -782 21 -1720 -25 -2669 -131 -533 -60 -860 46
-1290 417 -239 206 -324 253 -646 359 -295 97 -412 160 -642 343 -118 94 -149
112 -191 112 -118 0 -83 -267 62 -480 82 -118 151 -172 357 -275 134 -67 184
-100 174 -116 -9 -15 -49 -10 -154 22 -287 85 -730 173 -1180 235 -84 12 -195
18 -340 18 -282 1 -300 -6 -300 -117 0 -112 60 -145 330 -182 149 -21 365 -68
510 -112 205 -61 351 -147 324 -191 -24 -38 -95 -37 -524 3 -140 14 -313 29
-384 35 -250 19 -417 9 -484 -31 -18 -10 -35 -19 -38 -19 -2 0 -4 1000 -4
2223 l0 2223 116 169 c376 548 791 1100 1201 1601 190 232 456 544 464 544 3
0 -10 -30 -28 -67z m-2083 -15154 c0 -7615 -4 -12378 -9 -12374 -11 6 -239
373 -378 610 -1840 3120 -2913 6594 -3152 10200 -40 600 -46 797 -46 1565 0
743 6 954 41 1495 240 3736 1359 7303 3295 10501 152 251 236 384 244 384 3 0
5 -5571 5 -12381z m39224 12299 c90 -141 311 -509 450 -752 1762 -3062 2792
-6459 3025 -9981 40 -600 46 -797 46 -1565 0 -743 -6 -954 -41 -1495 -244
-3795 -1394 -7413 -3386 -10650 -71 -115 -136 -217 -144 -225 -12 -12 -14
1609 -14 12368 0 6810 2 12382 5 12382 3 0 29 -37 59 -82z m-38804 -4047 c64
-28 164 -45 510 -86 168 -20 349 -45 403 -56 156 -31 230 -75 189 -112 -57
-52 -209 -68 -662 -72 -414 -3 -433 -5 -485 -67 -75 -88 20 -202 207 -250 91
-22 105 -23 538 -23 245 0 454 -4 465 -9 33 -15 55 -38 55 -57 0 -41 -79 -69
-342 -124 -327 -68 -449 -111 -469 -163 -12 -32 -2 -86 23 -117 48 -61 233
-71 564 -31 475 58 666 67 1139 53 529 -16 639 2 1092 184 150 60 285 112 300
115 47 9 257 -15 406 -46 78 -17 308 -75 512 -130 1247 -334 1761 -433 2510
-485 460 -31 692 -37 1780 -45 616 -5 1212 -14 1325 -20 268 -15 1212 -16
1505 -1 499 25 843 56 1495 136 706 87 961 104 1240 86 149 -10 420 -44 452
-56 9 -4 19 -54 31 -148 46 -375 187 -931 403 -1589 102 -311 213 -626 447
-1273 171 -474 250 -711 271 -820 14 -69 41 -449 76 -1065 32 -568 30 -1122
-5 -1309 -9 -46 -31 -120 -50 -165 -85 -208 -125 -478 -125 -852 0 -146 -15
-305 -37 -393 -27 -111 -66 -191 -261 -533 -383 -674 -590 -1054 -816 -1503
-631 -1250 -1084 -2441 -1386 -3645 -106 -424 -162 -693 -265 -1275 -165 -931
-326 -1721 -466 -2279 -98 -391 -162 -603 -258 -850 -33 -83 -87 -232 -121
-331 -134 -388 -176 -467 -379 -725 -466 -589 -772 -1161 -1022 -1910 -177
-531 -279 -1009 -369 -1720 -201 -1600 -339 -2401 -491 -2866 -48 -146 -86
-230 -196 -434 -61 -113 -86 -190 -107 -327 -20 -132 -45 -195 -119 -306 -116
-174 -268 -305 -572 -493 -179 -112 -257 -167 -329 -234 -100 -93 -185 -242
-186 -324 0 -32 -3 -37 -17 -32 -34 13 -459 244 -673 366 -1460 833 -2789
1789 -4035 2905 -561 502 -1231 1170 -1741 1735 -703 779 -1403 1670 -1962
2496 l-82 121 0 10608 0 10608 23 -21 c12 -11 42 -30 67 -41z m38410 -188 c0
-198 -1 -205 -18 -190 -10 9 -38 24 -62 34 -39 15 -77 17 -291 15 -654 -8
-965 62 -713 158 64 24 245 54 519 85 282 32 459 62 510 85 22 10 43 19 48 19
4 1 7 -92 7 -206z m0 -10656 l0 -10312 -140 -204 c-1428 -2075 -3181 -3905
-5190 -5418 -229 -172 -563 -413 -567 -409 -1 1 8 22 20 47 16 32 23 67 25
126 4 70 1 89 -21 136 -31 67 -77 104 -151 119 -99 21 -202 -2 -695 -156 -118
-37 -282 -80 -365 -96 -799 -154 -833 -160 -1066 -167 -142 -4 -207 -1 -282
11 -181 30 -325 87 -478 189 -97 65 -281 249 -313 313 -33 65 -121 299 -392
1034 -1068 2898 -1772 4585 -2377 5699 -99 181 -100 184 -96 240 7 76 -7 276
-27 391 -49 291 -158 618 -385 1156 -67 160 -100 250 -104 290 -15 123 -79
489 -127 720 -237 1163 -641 2265 -1296 3544 -220 428 -406 772 -933 1720
-696 1252 -934 1690 -1181 2175 -101 198 -121 230 -142 233 -29 4 -66 66 -92
156 -9 32 -36 112 -61 178 -62 167 -73 245 -84 593 -13 416 -34 555 -120 781
-71 191 -75 226 -75 754 0 472 3 546 55 1340 l29 445 41 147 c68 248 249 789
483 1448 58 162 130 365 160 450 30 85 94 265 142 400 48 135 136 386 195 558
101 292 112 318 167 395 72 102 239 271 317 322 89 58 178 91 316 119 224 45
392 60 665 59 287 0 402 -10 1035 -88 668 -82 988 -111 1495 -136 297 -14
1232 -14 1495 1 107 6 710 15 1340 20 630 4 1181 11 1225 14 44 3 175 11 290
16 392 19 785 57 1054 100 291 47 986 206 1467 336 706 189 864 225 1064 239
l95 7 290 -116 c497 -198 493 -197 1360 -187 334 4 463 -4 800 -47 264 -33
550 -38 602 -10 49 27 73 65 73 114 0 37 -5 47 -32 68 -50 37 -163 71 -424
127 -240 51 -333 78 -354 104 -17 21 -3 53 33 73 29 15 74 17 482 17 389 1
459 3 520 18 83 20 191 71 208 98 6 10 15 19 19 19 5 0 8 -4641 8 -10313z
m-19450 -4172 c16 -165 57 -588 90 -940 166 -1762 283 -2721 460 -3780 l60
-360 0 -212 c0 -238 -12 -352 -66 -632 -22 -115 -44 -201 -59 -231 -47 -93
-147 -335 -190 -462 -158 -462 -229 -897 -241 -1488 -19 -877 109 -1768 605
-4225 233 -1154 272 -1443 250 -1843 -15 -269 -59 -482 -244 -1187 -136 -517
-162 -770 -93 -904 30 -58 96 -94 223 -121 l90 -19 -940 0 -940 -1 32 21 c19
12 43 43 60 77 44 90 39 171 -34 557 -79 411 -83 439 -83 593 0 152 26 319 66
432 15 41 37 104 50 140 30 84 30 114 -6 525 -63 727 -81 1090 -81 1595 0 617
37 1004 127 1336 159 588 221 934 271 1504 22 259 25 1082 5 1340 -38 480 -92
870 -175 1265 -43 203 -44 398 -3 645 65 397 68 485 30 1085 -26 422 -21 496
74 1055 214 1259 276 1639 361 2235 111 769 200 1545 241 2090 12 167 23 257
27 230 1 -11 16 -155 33 -320z m3831 -2890 c408 -500 731 -905 868 -1085 188
-248 339 -594 435 -995 33 -139 36 -168 46 -400 5 -137 17 -302 25 -365 116
-877 523 -1789 1303 -2915 460 -664 878 -1232 1502 -2040 578 -749 673 -886
816 -1180 113 -233 162 -389 269 -865 160 -714 289 -1077 461 -1301 112 -147
255 -219 398 -204 l51 6 -75 -36 c-141 -69 -586 -264 -861 -378 -1223 -509
-2543 -925 -3844 -1212 -452 -99 -386 -94 -512 -39 -160 70 -373 147 -592 215
-230 72 -263 84 -396 151 -332 166 -698 480 -996 854 -148 185 -303 439 -373
613 -42 105 -43 83 59 1331 145 1764 197 2546 247 3725 18 407 18 1852 0 2111
l-13 190 25 45 c44 79 116 267 150 392 81 295 117 595 146 1217 11 212 13 231
45 335 138 446 273 1014 354 1486 34 198 87 567 97 679 7 80 12 97 24 83 4 -4
157 -192 341 -418z m-7151 53 c258 -1243 420 -2277 420 -2697 0 -69 7 -259 16
-421 21 -419 14 -499 -80 -827 -126 -439 -185 -753 -220 -1163 -50 -576 -20
-1168 90 -1810 48 -278 99 -505 200 -890 508 -1924 694 -2985 618 -3522 -20
-141 -14 -311 15 -418 31 -114 35 -174 17 -275 -35 -205 -132 -418 -305 -670
-225 -327 -285 -439 -316 -590 -9 -44 -17 -80 -18 -81 -4 -4 -550 78 -806 121
-1719 291 -3356 762 -4978 1432 -169 70 -211 93 -165 93 34 0 111 59 146 112
53 79 79 170 136 461 99 507 109 547 190 712 61 127 133 229 238 344 48 52 93
112 107 143 13 29 69 204 125 388 245 812 447 1366 660 1807 153 317 273 508
527 842 681 894 1223 2166 1484 3486 27 138 61 285 75 328 35 105 107 245 238
461 159 263 177 304 386 916 62 179 127 358 146 398 45 98 120 225 499 837
177 286 357 579 401 652 43 73 82 132 85 133 3 0 34 -136 69 -302z m-15594
-4085 c1505 -2095 3374 -3960 5459 -5450 1733 -1238 3649 -2245 5645 -2968
1262 -457 2430 -770 3875 -1039 l130 -24 -7622 -1 -7623 -1 0 4830 c0 2657 2
4830 4 4830 3 0 62 -80 132 -177z m38364 -4653 l0 -4830 -7417 1 -7418 1 104
24 c131 30 335 90 372 109 15 8 34 23 41 33 8 12 43 24 98 36 47 9 218 49 380
87 2159 506 4272 1337 6220 2446 2346 1336 4457 3083 6246 5168 403 470 863
1056 1238 1578 70 97 129 177 132 177 2 0 4 -2173 4 -4830z m-7001 -1333 c-10
-9 -279 -173 -424 -259 -388 -230 -779 -447 -1209 -670 -266 -138 -551 -277
-531 -260 6 4 44 33 85 63 41 30 151 117 245 193 440 360 520 405 1271 707
181 73 381 155 444 184 63 28 117 50 119 48 2 -2 2 -5 0 -6z"/>
</g>
</svg>
